<?xml version="1.0" encoding="UTF-8" standalone="no"?>
<svg
   xmlns:dc="http://purl.org/dc/elements/1.1/"
   xmlns:cc="http://creativecommons.org/ns#"
   xmlns:rdf="http://www.w3.org/1999/02/22-rdf-syntax-ns#"
   xmlns:svg="http://www.w3.org/2000/svg"
   xmlns="http://www.w3.org/2000/svg"
   viewBox="0 0 870.00003 1005.0187"
   height="1005.0187"
   width="870"
   xml:space="preserve"
   version="1.1"
   id="svg3444"><metadata
     id="metadata3450"><rdf:RDF><cc:Work
         rdf:about=""><dc:format>image/svg+xml</dc:format><dc:type
           rdf:resource="http://purl.org/dc/dcmitype/StillImage" /><dc:title></dc:title></cc:Work></rdf:RDF></metadata><defs
     id="defs3448"><clipPath
       id="clipPath3460"
       clipPathUnits="userSpaceOnUse"><path
         style="clip-rule:evenodd"
         id="path3462"
         d="m 42,775.5 625.5,0 0,-747 -625.5,0 0,747 z" /></clipPath><clipPath
       id="clipPath3466"
       clipPathUnits="userSpaceOnUse"><path
         id="path3468"
         d="m 28,776 640,0 0,-748 -640,0 0,748 z" /></clipPath><clipPath
       id="clipPath3472"
       clipPathUnits="userSpaceOnUse"><path
         id="path3474"
         d="m 0,804.015 696,0 0,-804 -696,0 0,804 z" /></clipPath><clipPath
       id="clipPath3484"
       clipPathUnits="userSpaceOnUse"><path
         id="path3486"
         d="m 28,776 640,0 0,-748 -640,0 0,748 z" /></clipPath><clipPath
       id="clipPath3490"
       clipPathUnits="userSpaceOnUse"><path
         id="path3492"
         d="m 0,804.015 696,0 0,-804 -696,0 0,804 z" /></clipPath><clipPath
       id="clipPath3600"
       clipPathUnits="userSpaceOnUse"><path
         style="clip-rule:evenodd"
         id="path3602"
         d="m 138.5,314.84 160,0 0,-84 -160,0 0,84 z" /></clipPath><clipPath
       id="clipPath3606"
       clipPathUnits="userSpaceOnUse"><path
         id="path3608"
         d="m 28,776 640,0 0,-748 -640,0 0,748 z" /></clipPath><clipPath
       id="clipPath3612"
       clipPathUnits="userSpaceOnUse"><path
         id="path3614"
         d="m 0,804.015 696,0 0,-804 -696,0 0,804 z" /></clipPath><clipPath
       id="clipPath3706"
       clipPathUnits="userSpaceOnUse"><path
         style="clip-rule:evenodd"
         id="path3708"
         d="m 137.5,562.84 146.67,0 0,-143.32 -146.67,0 0,143.32 z" /></clipPath><clipPath
       id="clipPath3712"
       clipPathUnits="userSpaceOnUse"><path
         id="path3714"
         d="m 28,776 640,0 0,-748 -640,0 0,748 z" /></clipPath><clipPath
       id="clipPath3718"
       clipPathUnits="userSpaceOnUse"><path
         id="path3720"
         d="m 0,804.015 696,0 0,-804 -696,0 0,804 z" /></clipPath><clipPath
       id="clipPath3794"
       clipPathUnits="userSpaceOnUse"><path
         id="path3796"
         d="m 28,776 640,0 0,-748 -640,0 0,748 z" /></clipPath><clipPath
       id="clipPath3800"
       clipPathUnits="userSpaceOnUse"><path
         id="path3802"
         d="m 0,804.015 696,0 0,-804 -696,0 0,804 z" /></clipPath><clipPath
       id="clipPath3942"
       clipPathUnits="userSpaceOnUse"><path
         style="clip-rule:evenodd"
         id="path3944"
         d="m 401.94,293.84 113.33,0 0,-121.76 -113.33,0 0,121.76 z" /></clipPath><clipPath
       id="clipPath3948"
       clipPathUnits="userSpaceOnUse"><path
         id="path3950"
         d="m 28,776 640,0 0,-748 -640,0 0,748 z" /></clipPath><clipPath
       id="clipPath3954"
       clipPathUnits="userSpaceOnUse"><path
         id="path3956"
         d="m 0,804.015 696,0 0,-804 -696,0 0,804 z" /></clipPath><clipPath
       id="clipPath4036"
       clipPathUnits="userSpaceOnUse"><path
         style="clip-rule:evenodd"
         id="path4038"
         d="m 403,579.84 170.29,0 0,-142.86 -170.29,0 0,142.86 z" /></clipPath><clipPath
       id="clipPath4042"
       clipPathUnits="userSpaceOnUse"><path
         id="path4044"
         d="m 28,776 640,0 0,-748 -640,0 0,748 z" /></clipPath><clipPath
       id="clipPath4048"
       clipPathUnits="userSpaceOnUse"><path
         id="path4050"
         d="m 0,804.015 696,0 0,-804 -696,0 0,804 z" /></clipPath><clipPath
       id="clipPath4144"
       clipPathUnits="userSpaceOnUse"><path
         id="path4146"
         d="m 28,776 640,0 0,-748 -640,0 0,748 z" /></clipPath><clipPath
       id="clipPath4150"
       clipPathUnits="userSpaceOnUse"><path
         id="path4152"
         d="m 0,804.015 696,0 0,-804 -696,0 0,804 z" /></clipPath></defs><g
     transform="matrix(1.25,0,0,-1.25,0,1005.0187)"
     id="g3452"><path
       id="path3454"
       style="fill:#ffffff;fill-opacity:1;fill-rule:nonzero;stroke:none"
       d="m 0,804 0,0" /><g
       id="g3938"><g
         clip-path="url(#clipPath3942)"
         id="g3940"><g
           clip-path="url(#clipPath3948)"
           id="g3946"><g
             clip-path="url(#clipPath3954)"
             id="g3952"><path
               id="path3958"
               style="fill:none;stroke:#b3b3b3;stroke-width:0.34999999;stroke-linecap:butt;stroke-linejoin:miter;stroke-miterlimit:4;stroke-dasharray:none;stroke-opacity:1"
               d="m 423.359,272.097 0,-88.322 m 11.04,88.322 0,-88.322 m 11.041,88.322 0,-88.322 m 11.04,88.322 0,-88.322 m 11.04,88.322 0,-88.322 m 11.04,88.322 0,-88.322 m -55.201,0 55.201,0 m -55.201,11.04 55.201,0 m -55.201,11.041 55.201,0 m -55.201,11.04 55.201,0 m -55.201,11.04 55.201,0 m -55.201,11.04 55.201,0 m -55.201,11.04 55.201,0 m -55.201,11.041 55.201,0 m -55.201,11.04 55.201,0" /><text
               id="text3960"
               style="font-style:italic;font-variant:normal;font-size:9px;font-family:Times;-inkscape-font-specification:Times-Italic;writing-mode:lr-tb;fill:#231f20;fill-opacity:1;fill-rule:nonzero;stroke:none"
               transform="matrix(1,0,0,-1,420.3574,285.2585)"><tspan
                 id="tspan3962"
                 y="0"
                 x="0">C</tspan><tspan
                 id="tspan3964"
                 y="103.9986"
                 x="71.185501">d</tspan></text>
<text
               id="text3966"
               style="font-variant:normal;font-weight:normal;font-size:9px;font-family:Times;-inkscape-font-specification:Times-Roman;writing-mode:lr-tb;fill:#231f20;fill-opacity:1;fill-rule:nonzero;stroke:none"
               transform="matrix(1,0,0,-1,436.4404,174.4415)"><tspan
                 id="tspan3968"
                 y="0"
                 x="0 4.5 9 13.5 19.8297 24.3297 28.8297 33.3297 37.8297">800016000</tspan><tspan
                 id="tspan3970"
                 y="-28.3536"
                 x="-33.936298 -29.4363 -24.9363 -20.4363">2000</tspan><tspan
                 id="tspan3972"
                 y="-50.4342"
                 x="-33.936298 -29.4363 -24.9363 -20.4363">4000</tspan><tspan
                 id="tspan3974"
                 y="-72.514801"
                 x="-33.936298 -29.4363 -24.9363 -20.4363">6000</tspan></text>
<path
               id="path3976"
               style="fill:#ffffff;fill-opacity:1;fill-rule:nonzero;stroke:none"
               d="m 443.604,243.542 3.669,0 0,-59.331 -3.669,0 0,59.331 z" /><path
               id="path3978"
               style="fill:#ffffff;fill-opacity:1;fill-rule:nonzero;stroke:none"
               d="m 454.646,249.609 3.668,0 0,-65.398 -3.668,0 0,65.398 z" /><path
               id="path3980"
               style="fill:#ffffff;fill-opacity:1;fill-rule:nonzero;stroke:none"
               d="m 423.883,262.969 35.967,0 0,-3.668 -35.967,0 0,3.668 z" /><path
               id="path3982"
               style="fill:#ffffff;fill-opacity:1;fill-rule:nonzero;stroke:none"
               d="m 458.768,257.429 20.358,0 0,-3.668 -20.358,0 0,3.668 z" /><path
               id="path3984"
               style="fill:none;stroke:#148965;stroke-width:0.69999999;stroke-linecap:butt;stroke-linejoin:miter;stroke-miterlimit:4;stroke-dasharray:3.8, 2;stroke-dashoffset:0;stroke-opacity:1"
               d="m 445.44,183.775 0,60.916" /><path
               id="path3986"
               style="fill:#148965;fill-opacity:1;fill-rule:nonzero;stroke:none"
               d="m 445.44,247.656 1.707,-4.179 -1.707,0.992 -1.707,-0.992 1.707,4.179" /><path
               id="path3988"
               style="fill:none;stroke:#000000;stroke-width:0.69999999;stroke-linecap:butt;stroke-linejoin:miter;stroke-miterlimit:4;stroke-dasharray:none;stroke-opacity:1"
               d="m 423.359,183.775 62.235,0" /><path
               id="path3990"
               style="fill:#000000;fill-opacity:1;fill-rule:nonzero;stroke:none"
               d="m 488.56,183.775 -4.18,-1.707 0.993,1.707 -0.993,1.708 4.18,-1.708" /><path
               id="path3992"
               style="fill:none;stroke:#148965;stroke-width:0.69999999;stroke-linecap:butt;stroke-linejoin:miter;stroke-miterlimit:4;stroke-dasharray:3.8, 2;stroke-dashoffset:0;stroke-opacity:1"
               d="m 456.48,184.211 0,66.018" /><path
               id="path3994"
               style="fill:#148965;fill-opacity:1;fill-rule:nonzero;stroke:none"
               d="m 456.48,253.195 1.707,-4.18 -1.707,0.993 -1.707,-0.993 1.707,4.18" /><path
               id="path3996"
               style="fill:none;stroke:#148965;stroke-width:0.69999999;stroke-linecap:butt;stroke-linejoin:miter;stroke-miterlimit:4;stroke-dasharray:3.8, 2;stroke-dashoffset:0;stroke-opacity:1"
               d="m 423.359,261.135 37.524,0" /><path
               id="path3998"
               style="fill:#148965;fill-opacity:1;fill-rule:nonzero;stroke:none"
               d="m 463.849,261.135 -4.179,-1.707 0.992,1.707 -0.992,1.707 4.179,-1.707" /><path
               id="path4000"
               style="fill:none;stroke:#000000;stroke-width:0.69999999;stroke-linecap:butt;stroke-linejoin:miter;stroke-miterlimit:4;stroke-dasharray:none;stroke-opacity:1"
               d="m 423.359,183.775 0,95.357" /><path
               id="path4002"
               style="fill:#000000;fill-opacity:1;fill-rule:nonzero;stroke:none"
               d="m 423.359,282.097 1.707,-4.179 -1.707,0.992 -1.707,-0.992 1.707,4.179" /><path
               id="path4004"
               style="fill:none;stroke:#148965;stroke-width:1;stroke-linecap:butt;stroke-linejoin:miter;stroke-miterlimit:4;stroke-dasharray:4, 2;stroke-dashoffset:0;stroke-opacity:1"
               d="m 458.879,255.595 19.681,0" /><path
               id="path4006"
               style="fill:none;stroke:#148965;stroke-width:1;stroke-linecap:butt;stroke-linejoin:miter;stroke-miterlimit:4;stroke-dasharray:none;stroke-opacity:1"
               d="m 478.56,255.595 10.901,0 m -10.901,-5.579 10.901,0" /><path
               id="path4008"
               style="fill:none;stroke:#148965;stroke-width:0.69999999;stroke-linecap:butt;stroke-linejoin:miter;stroke-miterlimit:4;stroke-dasharray:none;stroke-opacity:1"
               d="m 483.559,268.51 0,-10.373" /><path
               id="path4010"
               style="fill:#148965;fill-opacity:1;fill-rule:nonzero;stroke:none"
               d="m 483.559,255.172 -1.707,4.179 1.707,-0.992 1.707,0.992 -1.707,-4.179" /><path
               id="path4012"
               style="fill:none;stroke:#148965;stroke-width:0.69999999;stroke-linecap:butt;stroke-linejoin:miter;stroke-miterlimit:4;stroke-dasharray:none;stroke-opacity:1"
               d="m 483.558,237.101 0,10.374" /><path
               id="path4014"
               style="fill:#148965;fill-opacity:1;fill-rule:nonzero;stroke:none"
               d="m 483.558,250.441 1.707,-4.179 -1.707,0.992 -1.707,-0.992 1.707,4.179" /><text
               id="text4016"
               style="font-variant:normal;font-weight:normal;font-size:9px;font-family:Times;-inkscape-font-specification:Times-Roman;writing-mode:lr-tb;fill:#231f20;fill-opacity:1;fill-rule:nonzero;stroke:none"
               transform="matrix(1,0,0,-1,492.9595,249.1344)"><tspan
                 id="tspan4018"
                 y="0"
                 x="0 4.5 9 13.5">$500</tspan></text>
<path
               id="path4020"
               style="fill:none;stroke:#ef2f2c;stroke-width:1.20000005;stroke-linecap:butt;stroke-linejoin:miter;stroke-miterlimit:4;stroke-dasharray:none;stroke-opacity:1"
               d="m 423.359,238.976 55.201,27.698" /><path
               id="path4022"
               style="fill:#2056ae;fill-opacity:1;fill-rule:nonzero;stroke:none"
               d="m 432.399,244.516 c 0,-1.105 0.896,-2 2,-2 1.105,0 2.001,0.895 2.001,2 0,1.104 -0.896,2 -2.001,2 -1.104,0 -2,-0.896 -2,-2" /><path
               id="path4024"
               style="fill:#2056ae;fill-opacity:1;fill-rule:nonzero;stroke:none"
               d="m 443.44,250.056 c 0,-1.105 0.895,-2 1.999,-2 1.105,0 2.001,0.895 2.001,2 0,1.104 -0.896,2 -2.001,2 -1.104,0 -1.999,-0.896 -1.999,-2" /><path
               id="path4026"
               style="fill:#2056ae;fill-opacity:1;fill-rule:nonzero;stroke:none"
               d="m 465.52,261.135 c 0,-1.104 0.896,-2 2,-2 1.105,0 2,0.896 2,2 0,1.105 -0.895,2 -2,2 -1.104,0 -2,-0.895 -2,-2" /><path
               id="path4028"
               style="fill:#2056ae;fill-opacity:1;fill-rule:nonzero;stroke:none"
               d="m 476.561,266.675 c 0,-1.105 0.895,-2 2,-2 1.105,0 2,0.895 2,2 0,1.105 -0.895,2 -2,2 -1.105,0 -2,-0.895 -2,-2" /><path
               id="path4030"
               style="fill:#2056ae;fill-opacity:1;fill-rule:nonzero;stroke:none"
               d="m 454.48,255.595 c 0,-1.104 0.895,-2 2,-2 1.104,0 2,0.896 2,2 0,1.105 -0.896,2 -2,2 -1.105,0 -2,-0.895 -2,-2" /></g></g></g></g><path
       id="path4236"
       style="fill:#ffffff;fill-opacity:1;fill-rule:nonzero;stroke:none"
       d="m 43,804.015 219,0 0,-11.015 -219,0 0,11.015 z" /><text
       id="text4238"
       style="font-variant:normal;font-weight:normal;font-size:8px;font-family:'Courier 10 Pitch';-inkscape-font-specification:Courier;writing-mode:lr-tb;fill:#000000;fill-opacity:1;fill-rule:nonzero;stroke:none"
       transform="matrix(1,0,0,-1,45,795)"><tspan
         id="tspan4240"
         y="0"
         x="0 4.6431999 9.2863998 13.9296 18.5728 23.216 27.8592 32.502399 37.145599 41.788799 46.431999 51.075199 55.718399 60.361599 65.004799 69.648003 74.291199 78.934402 83.577599 88.220802 92.863998 97.507202 102.1504 108.3056 112.9488 117.592 122.2352 126.8784 131.52161 136.16479 142.32001 146.9632 151.6064 156.2496 160.89281 163.9704 168.6136 173.25681 179.412 184.05521 188.69839 193.3416 197.9848 201.06239 205.7056 210.3488">19429_Ans_A-1-A-82.qxd 7/5/06 1:47 PM Page A-1</tspan></text>
<path
       id="path4242"
       style="fill:none;stroke:#ffffff;stroke-width:0.5;stroke-linecap:butt;stroke-linejoin:miter;stroke-miterlimit:10;stroke-dasharray:none;stroke-opacity:1"
       d="m 42,804 0,-24 m -42,-18 24,0 m 630,42 0,-24 m 42,-18 -24,0 M 42,0 42,24 M 0,42 24,42 m 630,-42 0,24 m 42,18 -24,0" /><path
       id="path4244"
       style="fill:none;stroke:#000000;stroke-width:0.25;stroke-linecap:butt;stroke-linejoin:miter;stroke-miterlimit:10;stroke-dasharray:none;stroke-opacity:1"
       d="m 42,804 0,-24 m -42,-18 24,0 m 630,42 0,-24 m 42,-18 -24,0 M 42,0 42,24 M 0,42 24,42 m 630,-42 0,24 m 42,18 -24,0" /><path
       id="path4246"
       style="fill:none;stroke:#ffffff;stroke-width:0.5;stroke-linecap:butt;stroke-linejoin:miter;stroke-miterlimit:10;stroke-dasharray:none;stroke-opacity:1"
       d="m 324,792 48,0 M 324,12 372,12 M 12,426 12,378 m 672,48 0,-48 m -336,426 0,-24 M 348,24 348,0 M 0,402 l 24,0 m 648,0 24,0 m -348,390 6,0 c 0,-3.312 -2.688,-6 -6,-6 -3.312,0 -6,2.688 -6,6 0,3.312 2.688,6 6,6 3.312,0 6,-2.688 6,-6 m -6,-780 6,0 c 0,-3.312 -2.688,-6 -6,-6 -3.312,0 -6,2.688 -6,6 0,3.312 2.688,6 6,6 3.312,0 6,-2.688 6,-6 m -342,390 6,0 c 0,-3.312 -2.688,-6 -6,-6 -3.312,0 -6,2.688 -6,6 0,3.312 2.688,6 6,6 3.312,0 6,-2.688 6,-6 m 666,0 6,0 c 0,-3.312 -2.688,-6 -6,-6 -3.312,0 -6,2.688 -6,6 0,3.312 2.688,6 6,6 3.312,0 6,-2.688 6,-6" /><path
       id="path4248"
       style="fill:none;stroke:#000000;stroke-width:0.25;stroke-linecap:butt;stroke-linejoin:miter;stroke-miterlimit:10;stroke-dasharray:none;stroke-opacity:1"
       d="m 324,792 48,0 M 324,12 372,12 M 12,426 12,378 m 672,48 0,-48 m -336,426 0,-24 M 348,24 348,0 M 0,402 l 24,0 m 648,0 24,0 m -348,390 6,0 c 0,-3.312 -2.688,-6 -6,-6 -3.312,0 -6,2.688 -6,6 0,3.312 2.688,6 6,6 3.312,0 6,-2.688 6,-6 m -6,-780 6,0 c 0,-3.312 -2.688,-6 -6,-6 -3.312,0 -6,2.688 -6,6 0,3.312 2.688,6 6,6 3.312,0 6,-2.688 6,-6 m -342,390 6,0 c 0,-3.312 -2.688,-6 -6,-6 -3.312,0 -6,2.688 -6,6 0,3.312 2.688,6 6,6 3.312,0 6,-2.688 6,-6 m 666,0 6,0 c 0,-3.312 -2.688,-6 -6,-6 -3.312,0 -6,2.688 -6,6 0,3.312 2.688,6 6,6 3.312,0 6,-2.688 6,-6" /></g></svg>