<svg xmlns="http://www.w3.org/2000/svg" xmlns:xlink="http://www.w3.org/1999/xlink" version="1.1" width="191" height="314" viewBox="0 0 191 314">
<defs>
<path id="font_1_2" d="M.33399964 .30233766C.33999635 .32835389 .36299134 .42037965 .43299867 .42037965 .43798829 .42037965 .46199037 .42037965 .48298646 .40734864 .45498658 .402359 .43499757 .37734986 .43499757 .35334779 .43499757 .33735658 .44599916 .31835938 .47299195 .31835938 .49499513 .31835938 .5269928 .3363495 .5269928 .37635804 .5269928 .42837525 .46798707 .4423828 .43399049 .4423828 .37599183 .4423828 .34098817 .38935853 .32899476 .36634828 .3039856 .43237306 .25 .4423828 .22099304 .4423828 .116989139 .4423828 .05999756 .3133545 .05999756 .28834535 .05999756 .27833558 .069992069 .27833558 .07199097 .27833558 .07998657 .27833558 .08299255 .28033448 .084991458 .28933717 .11898804 .39535523 .18499756 .42037965 .21899414 .42037965 .23799134 .42037965 .272995 .4113617 .272995 .35334779 .272995 .32235719 .2559967 .25532533 .21899414 .11528015 .20298767 .053268434 .16799927 .011245728 .12399292 .011245728 .117996219 .011245728 .09498596 .011245728 .07398987 .024276734 .09899902 .029266358 .12098694 .05027771 .12098694 .07827759 .12098694 .105270389 .09899902 .11328125 .083999637 .11328125 .053985597 .11328125 .0289917 .08728027 .0289917 .055267335 .0289917 .009246826 .07899475-.0107421879 .12298584-.0107421879 .18899536-.0107421879 .22499085 .059280397 .22799683 .0652771 .23999024 .028274537 .27598573-.0107421879 .33599855-.0107421879 .43899537-.0107421879 .49598695 .118270877 .49598695 .14328003 .49598695 .1532898 .4869995 .1532898 .48399354 .1532898 .47499085 .1532898 .47299195 .14929199 .47099305 .14228821 .43798829 .03527832 .36999513 .011245728 .33799745 .011245728 .29899598 .011245728 .2829895 .043273927 .2829895 .07727051 .2829895 .09927368 .2889862 .121276859 .2999878 .16529846L.33399964 .30233766Z"/>
<path id="font_1_1" d="M.36698915 .3996582H.45298768C.47299195 .3996582 .48298646 .3996582 .48298646 .41966249 .48298646 .43066407 .47299195 .43066407 .45599366 .43066407H.37298585L.3939972 .5449524C.397995 .5660095 .4119873 .6370239 .41799928 .6490326 .4269867 .66804507 .44400025 .68307498 .46499635 .68307498 .46899415 .68307498 .49499513 .68307498 .5139923 .66503909 .46998597 .661026 .45999146 .6260376 .45999146 .6110382 .45999146 .58802798 .47799684 .57603457 .49699403 .57603457 .522995 .57603457 .5519867 .5980377 .5519867 .6360321 .5519867 .6820679 .5059967 .7050781 .46499635 .7050781 .43099977 .7050781 .36799623 .68707278 .33799745 .58802798 .33198548 .56700137 .32899476 .5569763 .30499269 .43066407H.23599243C.21699524 .43066407 .20599365 .43066407 .20599365 .4116516 .20599365 .3996582 .21499634 .3996582 .23399353 .3996582H.2999878L.22499085 .0048828127C.20698548-.09207153 .18998719-.18309021 .13798523-.18309021 .13398743-.18309021 .10899353-.18309021 .08999634-.16506958 .13598633-.1620636 .14498902-.12606812 .14498902-.111068729 .14498902-.08807373 .1269989-.07606506 .10798645-.07606506 .08198547-.07606506 .052993776-.09806824 .052993776-.13606262 .052993776-.18109131 .09700012-.20507813 .13798523-.20507813 .19299317-.20507813 .23298645-.14607239 .25099183-.108062747 .2829895-.04508972 .30599977 .07583618 .30699159 .082839969L.36698915 .3996582Z"/>
<path id="font_2_1" d="M.33099366-.2400055C.33099366-.23701477 .33099366-.23500061 .31399537-.21800232 .18899536-.0920105 .15699768 .09700012 .15699768 .25 .15699768 .42399598 .19499207 .59799197 .31799317 .72299197 .33099366 .73498538 .33099366 .7369995 .33099366 .73999026 .33099366 .746994 .32699586 .75 .32099916 .75 .31098939 .75 .22099304 .6819916 .1619873 .5549927 .11099243 .44499208 .09899902 .33399964 .09899902 .25 .09899902 .17199707 .10998535 .050994874 .16499329-.06201172 .22499085-.18501282 .31098939-.25 .32099916-.25 .32699586-.25 .33099366-.24700928 .33099366-.2400055Z"/>
<path id="font_2_2" d="M.2889862 .25C.2889862 .32798768 .27799989 .44898988 .22299195 .56199648 .16299439 .68499758 .07699585 .75 .066986087 .75 .06098938 .75 .056991579 .74598696 .056991579 .73999026 .056991579 .7369995 .056991579 .73498538 .07598877 .71699526 .17399597 .6179962 .23098755 .45899964 .23098755 .25 .23098755 .07899475 .19400025-.09700012 .069992069-.2230072 .056991579-.23500061 .056991579-.23701477 .056991579-.2400055 .056991579-.2460022 .06098938-.25 .066986087-.25 .07699585-.25 .16699219-.18200684 .22599793-.055007936 .2769928 .054992677 .2889862 .16600037 .2889862 .25Z"/>
<path id="font_2_6" d="M.44898988 .20022583C.44898988 .3193512 .36698915 .41944886 .25898744 .41944886 .21099854 .41944886 .16799927 .40345765 .13198853 .36842347V.5637665C.1519928 .5577698 .18499756 .55078127 .21699524 .55078127 .33999635 .55078127 .4099884 .6417694 .4099884 .6547699 .4099884 .6607666 .40699769 .6657715 .3999939 .6657715 .39898683 .6657715 .39698792 .6657715 .3919983 .66278079 .37199403 .6537781 .32299806 .6337738 .2559967 .6337738 .21598816 .6337738 .16999817 .6407776 .12298584 .6617737 .114990238 .66477969 .11299133 .66477969 .11099243 .66477969 .100997928 .66477969 .100997928 .6567688 .100997928 .6407776V.34439088C.100997928 .32637025 .100997928 .31835938 .114990238 .31835938 .12199402 .31835938 .12399292 .32136537 .12799073 .32736207 .13899231 .3433838 .17599488 .39746095 .25698854 .39746095 .30899049 .39746095 .33399964 .35139466 .34199525 .33337403 .35798646 .29632569 .3600006 .25727845 .3600006 .20722962 .3600006 .17222595 .3600006 .11222839 .33599855 .07035828 .31199647 .031463624 .2749939 .0055389406 .22898865 .0055389406 .1559906 .0055389406 .09899902 .058380128 .08198547 .11723328 .084991458 .1162262 .08799744 .115234378 .09899902 .115234378 .13198853 .115234378 .14898682 .14022827 .14898682 .16423035 .14898682 .18823242 .13198853 .21322632 .09899902 .21322632 .084991458 .21322632 .049987794 .20622254 .049987794 .16023255 .049987794 .07434082 .11898804-.022460938 .23098755-.022460938 .34700013-.022460938 .44898988 .073349 .44898988 .20022583Z"/>
<path id="font_2_3" d="M.45999146 .31976319C.45999146 .39982606 .45498658 .47988893 .41999818 .5539398 .37399293 .65000918 .2919922 .6660156 .25 .6660156 .18998719 .6660156 .116989139 .64001467 .07598877 .54693606 .04399109 .47789 .038986207 .39982606 .038986207 .31976319 .038986207 .24472046 .042999269 .15464783 .083999637 .07859802 .1269989-.0024719239 .19999695-.022460938 .24899292-.022460938 .30299378-.022460938 .3789978-.0014648438 .4229889 .09359741 .45498658 .16265869 .45999146 .2407074 .45999146 .31976319M.24899292-.00047302247C.20999146-.00047302247 .15098572 .024551392 .1329956 .12062073 .12199402 .18066406 .12199402 .2727356 .12199402 .3317871 .12199402 .39582826 .12199402 .46188355 .12998963 .5159149 .14898682 .63500979 .22399903 .64401248 .24899292 .64401248 .28199769 .64401248 .34799195 .6259918 .36698915 .52693179 .3769989 .47088624 .3769989 .39482118 .3769989 .3317871 .3769989 .25672914 .3769989 .18867493 .3659973 .12461853 .35099793 .029556275 .2939911-.00047302247 .24899292-.00047302247Z"/>
<path id="font_2_4" d="M.2939911 .64004519C.2939911 .66400149 .2939911 .6660156 .2709961 .6660156 .20899964 .60227969 .12098694 .60227969 .08898926 .60227969V.57128909C.10899353 .57128909 .16799927 .57128909 .21998596 .5972748V.07902527C.21998596 .042999269 .21699524 .0309906 .1269989 .0309906H.09498596V0C.12998963 .0029907227 .21699524 .0029907227 .25698854 .0029907227 .29699708 .0029907227 .38398744 .0029907227 .4189911 0V.0309906H.3869934C.29699708 .0309906 .2939911 .041992189 .2939911 .07902527V.64004519Z"/>
<path id="font_2_7" d="M.68699648 .32714845C.70199587 .32714845 .72099307 .32714845 .72099307 .34713746 .72099307 .36714173 .70199587 .36714173 .6879883 .36714173H.08898926C.07499695 .36714173 .055999757 .36714173 .055999757 .34713746 .055999757 .32714845 .07499695 .32714845 .08999634 .32714845H.68699648M.6879883 .13284302C.70199587 .13284302 .72099307 .13284302 .72099307 .15284729 .72099307 .17285156 .70199587 .17285156 .68699648 .17285156H.08999634C.07499695 .17285156 .055999757 .17285156 .055999757 .15284729 .055999757 .13284302 .07499695 .13284302 .08898926 .13284302H.6879883Z"/>
<path id="font_2_5" d="M.1269989 .07699585 .23298645 .18003845C.3889923 .31811524 .44898988 .3721466 .44898988 .47216798 .44898988 .5860901 .35899354 .6660156 .23699951 .6660156 .12399292 .6660156 .049987794 .57411196 .049987794 .48516847 .049987794 .4291687 .099990848 .4291687 .102996829 .4291687 .11999512 .4291687 .15499878 .44117738 .15499878 .48217774 .15499878 .5081787 .13699341 .5341797 .101989749 .5341797 .09399414 .5341797 .09199524 .5341797 .08898926 .5331726 .11199951 .59806826 .1659851 .63500979 .22399903 .63500979 .31498719 .63500979 .35798646 .5541382 .35798646 .47216798 .35798646 .39215089 .30799867 .31311036 .25299073 .25108338L.06098938 .036987306C.049987794 .025985718 .049987794 .023986817 .049987794 0H.42099L.44898988 .17404175H.42399598C.4189911 .14402771 .4119873 .1000061 .4019928 .084991458 .394989 .07699585 .32899476 .07699585 .30699159 .07699585H.1269989Z"/>
<path id="font_3_1" d="M.24899292 .10601807C.23899842 .072021488 .20599365 .018234253 .15499878 .018234253 .1519928 .018234253 .12199402 .018234253 .100997928 .03215027 .14199829 .04508972 .14498902 .08100891 .14498902 .087020877 .14498902 .10900879 .12799073 .12402344 .10499573 .12402344 .07699585 .12402344 .04798889 .10002136 .04798889 .0630188 .04798889 .01322937 .10398865-.009765625 .15299988-.009765625 .19898987-.009765625 .23999024 .019226075 .2649994 .061019899 .2889862 .008224487 .34399415-.009765625 .38398744-.009765625 .49899293-.009765625 .55999758 .11502075 .55999758 .14305115 .55999758 .15608216 .5469971 .15608216 .5439911 .15608216 .5299988 .15608216 .5289917 .15107727 .5249939 .13905335 .5039978 .07002258 .44400025 .018234253 .3880005 .018234253 .34799195 .018234253 .32699586 .04508972 .32699586 .08302307 .32699586 .10900879 .35099793 .20018006 .3789978 .31140138 .39898683 .38841249 .44400025 .4133911 .47698976 .4133911 .47898866 .4133911 .5099945 .4133911 .5309906 .39941407 .49899293 .39041139 .4869995 .3624115 .4869995 .34440614 .4869995 .32240296 .5039978 .30740357 .5269928 .30740357 .5499878 .30740357 .58299258 .32640077 .58299258 .3684082 .58299258 .4243927 .5189972 .44140626 .47898866 .44140626 .42900086 .44140626 .3889923 .4084015 .36698915 .3704071 .34899903 .4113922 .30299378 .44140626 .24699402 .44140626 .1349945 .44140626 .070999149 .31840516 .070999149 .2883606 .070999149 .27534486 .084991458 .27534486 .08799744 .27534486 .100997928 .27534486 .101989749 .27934266 .10699463 .29237367 .13198853 .3704071 .19499207 .4133911 .24398804 .4133911 .2769928 .4133911 .3039856 .395401 .3039856 .3474121 .3039856 .32740785 .2919922 .27734376 .2829895 .24327088L.24899292 .10601807Z"/>
<path id="font_4_1" d="M.74398806 .2263794C.7599945 .2263794 .7839966 .2263794 .7839966 .25038148 .7839966 .27539063 .7609863 .27539063 .74398806 .27539063H.147995C.13198853 .27539063 .10798645 .27539063 .10798645 .25138856 .10798645 .2263794 .1309967 .2263794 .147995 .2263794H.74398806Z"/>
<path id="font_5_1" d="M.33499146 .63612368C.33499146 .6630554 .33299256 .6640625 .30499269 .6640625 .24099732 .6014404 .1499939 .6004486 .10899353 .6004486V.5644531C.1329956 .5644531 .19898987 .5644531 .2539978 .592453V.08203125C.2539978 .04899597 .2539978 .035995485 .1539917 .035995485H.115997318V0C.13398743 .0009918213 .25698854 .0039978029 .2939911 .0039978029 .32499696 .0039978029 .45098878 .0009918213 .47299195 0V.035995485H.43499757C.33499146 .035995485 .33499146 .04899597 .33499146 .08203125V.63612368Z"/>
<path id="font_6_85" d="M.33099366-.2400055C.33099366-.23701477 .33099366-.23500061 .31399537-.21800232 .18899536-.0920105 .15699768 .09700012 .15699768 .25 .15699768 .42399598 .19499207 .59799197 .31799317 .72299197 .33099366 .7350006 .33099366 .7369995 .33099366 .73999026 .33099366 .746994 .32699586 .75 .32099916 .75 .31098939 .75 .22099304 .6819916 .1619873 .5549927 .11099243 .44499208 .09899902 .33399964 .09899902 .25 .09899902 .17199707 .10998535 .050994874 .16499329-.06201172 .22499085-.18501282 .31098939-.25 .32099916-.25 .32699586-.25 .33099366-.24700928 .33099366-.2400055Z"/>
<path id="font_6_28" d="M.48298646 .08912659V.14511109H.45799256V.08912659C.45799256 .03112793 .43299867 .025131226 .42199708 .025131226 .3889923 .025131226 .3849945 .070129398 .3849945 .07511902V.27508546C.3849945 .31707765 .3849945 .3560791 .34899903 .39312745 .30999757 .43223573 .2599945 .4482422 .21199036 .4482422 .12998963 .4482422 .06098938 .40115357 .06098938 .335083 .06098938 .30508424 .08099365 .28808595 .10699463 .28808595 .1349945 .28808595 .15299988 .30807496 .15299988 .33407594 .15299988 .3460846 .147995 .37908937 .101989749 .38008119 .1289978 .41519166 .17799378 .426239 .20999146 .426239 .25898744 .426239 .31599427 .38710023 .31599427 .29808045V.26107789C.2649994 .25808717 .19499207 .25508119 .13198853 .22509766 .056991579 .19110108 .03199768 .13911438 .03199768 .09512329 .03199768 .014251709 .1289978-.0107421879 .19198609-.0107421879 .2579956-.0107421879 .3039856 .029251099 .32299806 .07624817 .32699586 .036132814 .35398866-.005859375 .40098573-.005859375 .42199708-.005859375 .48298646 .008132935 .48298646 .08912659M.31599427 .14013672C.31599427 .04525757 .24398804 .011245728 .19898987 .011245728 .1499939 .011245728 .10899353 .04624939 .10899353 .09625244 .10899353 .15124512 .15098572 .23425293 .31599427 .24024964V.14013672Z"/>
<path id="font_6_86" d="M.2889862 .25C.2889862 .32798768 .27799989 .44898988 .22299195 .56199648 .16299439 .68499758 .07699585 .75 .066986087 .75 .06098938 .75 .056991579 .74598696 .056991579 .73999026 .056991579 .7369995 .056991579 .7350006 .07598877 .71699526 .17399597 .6179962 .23098755 .45899964 .23098755 .25 .23098755 .07899475 .19400025-.09700012 .069992069-.2230072 .056991579-.23500061 .056991579-.23701477 .056991579-.2400055 .056991579-.2460022 .06098938-.25 .066986087-.25 .07699585-.25 .16699219-.18200684 .22599793-.055007936 .2769928 .054992677 .2889862 .16600037 .2889862 .25Z"/>
</defs>
<path transform="matrix(1.00006,0,0,-1.00008,44.334756,265.07118)" stroke-width=".3985" stroke-linecap="butt" stroke-miterlimit="10" stroke-linejoin="miter" fill="none" stroke="#00aeef" d="M-42.5202-28.3468H127.56062M-42.5202-14.17339H127.56062M-42.5202 0H127.56062M-42.5202 14.17339H127.56062M-42.5202 28.3468H127.56062M-42.5202 42.5202H127.56062M-42.5202 56.69362H127.56062M-42.5202 70.867H127.56062M-42.5202 85.04042H127.56062M-42.5202 99.21382H127.56062M-42.5202 113.38724H127.56062M-42.5202 127.56062H127.56062M-42.5202 141.73404H127.56062M-42.5202 155.90744H127.56062M-42.5202 170.08086H127.56062M-42.5202 184.25424H127.56062M-42.5202 198.42766H127.56062M-42.5202 212.60106H127.56062M-42.5202 226.77448H127.56062M-42.5202 240.9429H127.56062M-42.5202-28.3468V240.94788M-28.3468-28.3468V240.94788M-14.17339-28.3468V240.94788M0-28.3468V240.94788M14.17339-28.3468V240.94788M28.3468-28.3468V240.94788M42.5202-28.3468V240.94788M56.69362-28.3468V240.94788M70.867-28.3468V240.94788M85.04042-28.3468V240.94788M99.21382-28.3468V240.94788M113.38724-28.3468V240.94788M127.55566-28.3468V240.94788M127.56062 240.94788"/>
<path transform="matrix(1.00006,0,0,-1.00008,44.334756,265.07118)" stroke-width=".79701" stroke-linecap="butt" stroke-miterlimit="10" stroke-linejoin="miter" fill="none" stroke="#000000" d="M-42.5202 0H134.63014"/>
<path transform="matrix(1.00006,0,0,-1.00008,178.97296,265.07118)" d="M1.0361 0C-.25902 .25902-1.55415 .77707-3.1083 1.68365-1.55415 .51805-1.55415-.51805-3.1083-1.68365-1.55415-.77707-.25902-.25902 1.0361 0Z"/>
<path transform="matrix(1.00006,0,0,-1.00008,178.97296,265.07118)" stroke-width=".79701" stroke-linecap="butt" stroke-linejoin="round" fill="none" stroke="#000000" d="M1.0361 0C-.25902 .25902-1.55415 .77707-3.1083 1.68365-1.55415 .51805-1.55415-.51805-3.1083-1.68365-1.55415-.77707-.25902-.25902 1.0361 0Z"/>
<use data-text="x" xlink:href="#font_1_2" transform="matrix(9.963197,0,0,-9.963397,184.12714,267.21635)"/>
<path transform="matrix(1.00006,0,0,-1.00008,44.334756,265.07118)" stroke-width=".79701" stroke-linecap="butt" stroke-miterlimit="10" stroke-linejoin="miter" fill="none" stroke="#000000" d="M0-28.3468V248.01738"/>
<path transform="matrix(0,-1.00008,-1.00006,-0,44.334756,17.03395)" d="M1.0361 0C-.25902 .25902-1.55415 .77707-3.1083 1.68365-1.55415 .51805-1.55415-.51805-3.1083-1.68365-1.55415-.77707-.25902-.25902 1.0361 0Z"/>
<path transform="matrix(0,-1.00008,-1.00006,-0,44.334756,17.03395)" stroke-width=".79701" stroke-linecap="butt" stroke-linejoin="round" fill="none" stroke="#000000" d="M1.0361 0C-.25902 .25902-1.55415 .77707-3.1083 1.68365-1.55415 .51805-1.55415-.51805-3.1083-1.68365-1.55415-.77707-.25902-.25902 1.0361 0Z"/>
<use data-text="f" xlink:href="#font_1_1" transform="matrix(9.963197,0,0,-9.963397,34.638177,9.388718)"/>
<use data-text="(" xlink:href="#font_2_1" transform="matrix(9.963197,0,0,-9.963397,40.58854,9.388718)"/>
<use data-text="x" xlink:href="#font_1_2" transform="matrix(9.963197,0,0,-9.963397,44.46276,9.388718)"/>
<use data-text=")" xlink:href="#font_2_2" transform="matrix(9.963197,0,0,-9.963397,50.157098,9.388718)"/>
<path transform="matrix(1.00006,0,0,-1.00008,44.334756,265.07118)" stroke-width=".79701" stroke-linecap="butt" stroke-miterlimit="10" stroke-linejoin="miter" fill="none" stroke="#000000" d="M70.867 2.12592V-2.12613"/>
<path transform="matrix(1.00006,0,0,-1.00008,44.334756,265.07118)" d="M67.38004-12.93018H74.35398V-4.5171997H67.38004Z" fill="#ffffff"/>
<use data-text="5" xlink:href="#font_2_6" transform="matrix(9.963197,0,0,-9.963397,112.71485,277.00614)"/>
<path transform="matrix(1.00006,0,0,-1.00008,44.334756,265.07118)" stroke-width=".79701" stroke-linecap="butt" stroke-miterlimit="10" stroke-linejoin="miter" fill="none" stroke="#000000" d="M1.98425 70.867H-1.98427"/>
<path transform="matrix(1.00006,0,0,-1.00008,44.334756,265.07118)" d="M-4.33548 74.65283H-19.57843V67.0812H-4.33548ZM-19.57843 67.0812" fill="#ffffff"/>
<use data-text="5" xlink:href="#font_2_6" transform="matrix(8.966877,0,0,-8.967057,25.651436,197.08823)"/>
<use data-text="0" xlink:href="#font_2_3" transform="matrix(8.966877,0,0,-8.967057,30.134865,197.08823)"/>
<use data-text="0" xlink:href="#font_2_3" transform="matrix(8.966877,0,0,-8.967057,34.618295,197.08823)"/>
<path transform="matrix(1.00006,0,0,-1.00008,44.334756,265.07118)" stroke-width=".79701" stroke-linecap="butt" stroke-miterlimit="10" stroke-linejoin="miter" fill="none" stroke="#000000" d="M1.98425 141.73404H-1.98427"/>
<path transform="matrix(1.00006,0,0,-1.00008,44.334756,265.07118)" d="M-4.33548 145.51987H-24.06168V137.94823H-4.33548ZM-24.06168 137.94823" fill="#ffffff"/>
<use data-text="1" xlink:href="#font_2_4" transform="matrix(8.966877,0,0,-8.967057,21.168168,126.21556)"/>
<use data-text="0" xlink:href="#font_2_3" transform="matrix(8.966877,0,0,-8.967057,25.651597,126.21556)"/>
<use data-text="0" xlink:href="#font_2_3" transform="matrix(8.966877,0,0,-8.967057,30.135025,126.21556)"/>
<use data-text="0" xlink:href="#font_2_3" transform="matrix(8.966877,0,0,-8.967057,34.618455,126.21556)"/>
<path transform="matrix(1.00006,0,0,-1.00008,44.334756,265.07118)" stroke-width=".79701" stroke-linecap="butt" stroke-miterlimit="10" stroke-linejoin="miter" fill="none" stroke="#000000" d="M1.98425 212.60106H-1.98427"/>
<path transform="matrix(1.00006,0,0,-1.00008,44.334756,265.07118)" d="M-4.33548 216.38689H-24.06168V208.81525H-4.33548ZM-24.06168 208.81525" fill="#ffffff"/>
<use data-text="1" xlink:href="#font_2_4" transform="matrix(8.966877,0,0,-8.967057,21.168168,55.342897)"/>
<use data-text="5" xlink:href="#font_2_6" transform="matrix(8.966877,0,0,-8.967057,25.651597,55.342897)"/>
<use data-text="0" xlink:href="#font_2_3" transform="matrix(8.966877,0,0,-8.967057,30.135025,55.342897)"/>
<use data-text="0" xlink:href="#font_2_3" transform="matrix(8.966877,0,0,-8.967057,34.618455,55.342897)"/>
<path transform="matrix(1.00006,0,0,-1.00008,44.334756,265.07118)" stroke-width="1.19553" stroke-linecap="butt" stroke-miterlimit="10" stroke-linejoin="miter" fill="none" stroke="#ff0000" d="M-40.64915 .96884C-41.22609 .9433-41.22609 .9433-40.72905 .9667-40.23203 .99011-39.43494 1.02875-38.93791 1.0545-38.44089 1.08029-37.64381 1.12433-37.14679 1.15248-36.64977 1.18062-35.85268 1.2269-35.35564 1.25739-34.85861 1.28786-34.06152 1.33879-33.5645 1.37221-33.06747 1.40562-32.27039 1.46173-31.77336 1.4983-31.27634 1.53488-30.47925 1.59613-29.98221 1.63585-29.48518 1.67557-28.68811 1.74117-28.19109 1.78464-27.69406 1.82813-26.89697 1.9016-26.39995 1.94922-25.90292 1.99683-25.10583 2.07613-24.60881 2.12785-24.11177 2.1796-23.31468 2.26564-22.81766 2.32207-22.32063 2.37851-21.52354 2.47292-21.02652 2.53467-20.5295 2.59642-19.7324 2.69966-19.23538 2.76715-18.73834 2.83463-17.94127 2.94748-17.44424 3.02106-16.94722 3.09462-16.15013 3.21739-15.6531 3.29744-15.15608 3.37749-14.359 3.51053-13.86197 3.59805-13.36493 3.68558-12.56784 3.83273-12.07082 3.92828-11.57379 4.02386-10.7767 4.18263-10.27968 4.28688-9.78265 4.39111-8.98558 4.56552-8.48856 4.67961-7.99152 4.79369-7.19443 4.9846-6.6974 5.10912-6.20038 5.23366-5.40329 5.44139-4.90627 5.57713-4.40924 5.71288-3.61215 5.9394-3.11513 6.08752-2.61809 6.23563-1.82101 6.48297-1.32397 6.64464-.82695 6.80632-.02988 7.07634 .46712 7.25278 .96414 7.42921 1.76123 7.72375 2.25826 7.9163 2.7553 8.10886 3.55237 8.43033 4.04941 8.64058 4.54643 8.85083 5.34352 9.20215 5.84055 9.4317 6.33757 9.66124 7.13466 10.04445 7.63168 10.29503 8.12872 10.54562 8.9258 10.96432 9.42284 11.23775 9.91986 11.51117 10.71693 11.96709 11.21396 12.26567 11.71098 12.56427 12.50807 13.06439 13.0051 13.38985 13.50214 13.71529 14.29921 14.25632 14.79625 14.61133 15.29327 14.96634 16.09036 15.56046 16.58739 15.94853 17.08441 16.3366 17.8815 16.98474 18.37852 17.40834 18.87556 17.83194 19.67262 18.53917 20.16966 19.0016 20.66669 19.46404 21.46378 20.23645 21.9608 20.74127 22.45782 21.24606 23.25491 22.089 23.75194 22.6399 24.24898 23.1908 25.04605 24.11047 25.54309 24.71175 26.04012 25.31302 26.8372 26.31706 27.33423 26.97348 27.83125 27.62993 28.62833 28.72632 29.12535 29.44286 29.62239 30.15938 30.41946 31.35574 30.9165 32.13779 31.41353 32.91982 32.21062 34.22563 32.70764 35.07924 33.20467 35.93285 34.00175 37.3582 34.49878 38.28998 34.99582 39.22176 35.7929 40.7777 36.28993 41.79483 36.78696 42.81197 37.58403 44.51053 38.08105 45.62083 38.57808 46.73116 39.37517 48.58536 39.8722 49.79723 40.36923 51.00908 41.1663 53.03256 41.66335 54.35509 42.16037 55.6776 42.95746 57.88538 43.45448 59.32906 43.9515 60.77275 44.7486 63.1843 45.24562 64.76022 45.74266 66.33615 46.53973 68.96706 47.03677 70.68729 47.5338 72.40752 48.33087 75.28078 48.8279 77.15848 49.32492 79.03621 50.12201 82.17104 50.61903 84.22054 51.11607 86.27003 51.91315 89.69263 52.41019 91.92989 52.90721 94.16713 53.7043 97.90314 54.20132 100.34512 54.69835 102.78712 55.49544 106.8647 55.99246 109.53006 56.4895 112.19543 57.28656 116.6459 57.7836 119.55522 58.28062 122.46452 59.07771 127.32251 59.57474 130.49843 60.07176 133.67436 60.86885 138.97846 61.36588 142.44513 61.86292 145.91179 62.65999 151.70017 63.15703 155.48378 63.65405 159.26737 64.45114 165.58449 64.94817 169.71469 65.44519 173.84491 66.24226 180.7431 66.73929 185.25147 67.23633 189.75983 68.0334 197.2872 68.53044 202.20781 69.02747 207.12844 69.82455 215.34542 70.32158 220.71591 70.8186 226.08638 72.11272 240.91457 71.94994 239.0487"/>
<path transform="matrix(-.9990199,.044333549,.04433266,.99903997,3.6831666,264.10227)" d="M1.27522 0C-.31879 .31879-1.91284 .9564-3.8257 2.07224-1.91284 .6376-1.91284-.6376-3.8257-2.07224-1.91284-.9564-.31879-.31879 1.27522 0Z" fill="#ff0000"/>
<path transform="matrix(-.9990199,.044333549,.04433266,.99903997,3.6831666,264.10227)" stroke-width="1.19553" stroke-linecap="butt" stroke-linejoin="round" fill="none" stroke="#ff0000" d="M1.27522 0C-.31879 .31879-1.91284 .9564-3.8257 2.07224-1.91284 .6376-1.91284-.6376-3.8257-2.07224-1.91284-.9564-.31879-.31879 1.27522 0Z"/>
<path transform="matrix(.08691521,-.9962797,-.99625977,-.08691695,116.28901,26.003357)" d="M1.27522 0C-.31879 .31879-1.91284 .9564-3.8257 2.07224-1.91284 .6376-1.91284-.6376-3.8257-2.07224-1.91284-.9564-.31879-.31879 1.27522 0Z" fill="#ff0000"/>
<path transform="matrix(.08691521,-.9962797,-.99625977,-.08691695,116.28901,26.003357)" stroke-width="1.19553" stroke-linecap="butt" stroke-linejoin="round" fill="none" stroke="#ff0000" d="M1.27522 0C-.31879 .31879-1.91284 .9564-3.8257 2.07224-1.91284 .6376-1.91284-.6376-3.8257-2.07224-1.91284-.9564-.31879-.31879 1.27522 0Z"/>
<path transform="matrix(1.00006,0,0,-1.00008,44.334756,265.07118)" d="M38.17871 21.05405H117.728717V35.63955H38.17871Z" fill="#ffffff"/>
<use data-text="f" xlink:href="#font_1_1" transform="matrix(9.963197,0,0,-9.963397,84.50816,239.53212)"/>
<use data-text="(" xlink:href="#font_2_1" transform="matrix(9.963197,0,0,-9.963397,90.45853,239.53212)"/>
<use data-text="x" xlink:href="#font_1_2" transform="matrix(9.963197,0,0,-9.963397,94.33275,239.53212)"/>
<use data-text=")" xlink:href="#font_2_2" transform="matrix(9.963197,0,0,-9.963397,100.027088,239.53212)"/>
<use data-text="=" xlink:href="#font_2_7" transform="matrix(9.963197,0,0,-9.963397,106.65262,239.53212)"/>
<use data-text="1" xlink:href="#font_2_4" transform="matrix(9.963197,0,0,-9.963397,117.1638,239.53212)"/>
<use data-text="0" xlink:href="#font_2_3" transform="matrix(9.963197,0,0,-9.963397,122.145389,239.53212)"/>
<use data-text="0" xlink:href="#font_2_3" transform="matrix(9.963197,0,0,-9.963397,127.12698,239.53212)"/>
<use data-text="(" xlink:href="#font_2_1" transform="matrix(9.963197,0,0,-9.963397,132.10857,239.53212)"/>
<use data-text="2" xlink:href="#font_2_5" transform="matrix(9.963197,0,0,-9.963397,135.97429,239.53212)"/>
<use data-text=")" xlink:href="#font_2_2" transform="matrix(9.963197,0,0,-9.963397,140.95589,239.53212)"/>
<use data-text="x" xlink:href="#font_3_1" transform="matrix(6.9742186,0,0,-6.974358,144.86177,235.91683)"/>
<use data-text="&#x2212;" xlink:href="#font_4_1" transform="matrix(6.9742186,0,0,-6.974358,149.38005,235.91683)"/>
<use data-text="1" xlink:href="#font_5_1" transform="matrix(6.9742186,0,0,-6.974358,155.60643,235.91683)"/>
<use data-text="(" xlink:href="#font_6_85" transform="matrix(9.963197,0,0,-9.963397,87.578357,310.08576)"/>
<use data-text="a" xlink:href="#font_6_28" transform="matrix(9.963197,0,0,-9.963397,91.45404,310.08576)"/>
<use data-text=")" xlink:href="#font_6_86" transform="matrix(9.963197,0,0,-9.963397,96.43564,310.08576)"/>
</svg>
